<?xml version="1.0" encoding="UTF-8" standalone="no"?>
<!DOCTYPE svg PUBLIC "-//W3C//DTD SVG 1.1//EN" "http://www.w3.org/Graphics/SVG/1.1/DTD/svg11.dtd">
<svg width="100%" height="100%" viewBox="0 0 3000 3000" version="1.1" xmlns="http://www.w3.org/2000/svg" xmlns:xlink="http://www.w3.org/1999/xlink" xml:space="preserve" xmlns:serif="http://www.serif.com/" style="fill-rule:evenodd;clip-rule:evenodd;stroke-linecap:round;stroke-linejoin:round;stroke-miterlimit:1.5;">
    <path id="main" d="M914.258,1215.03C954.172,893.295 240.745,619.562 292.418,305.882C319.741,140.016 518.912,161.716 620.073,296.857C695.329,397.392 836.183,759.355 965.314,957.923C1032.66,1061.48 1131.88,1121.24 1263.62,1060.37C1454.47,972.198 1395.24,714.616 1513.82,520.001C1616.88,350.86 1804.21,396.053 1796.32,586.735C1791,715.282 1593.24,941.924 1567.69,1023.6C1545.48,1094.62 1598.66,1172.14 1651.07,1196.29C1744.64,1239.4 1911.17,1189.42 1973.85,1160.53C2117.86,1094.16 2319.9,950.201 2482.29,911.719C2692.19,861.978 2788.2,1045.45 2648.19,1136.51C2444.16,1269.21 2213.26,1229.32 2094.66,1258.98C1982.96,1286.9 1741.22,1352.68 1819.23,1499.84C1915.08,1680.64 2503.05,1650.66 2704.85,1827.81C2886.65,1987.4 2686.72,2174.01 2325.34,1970.37C2233.04,1918.35 1674.15,1457.99 1654.32,1709.88C1641.84,1868.38 1806,1845.34 1861.39,2034.85C1909.29,2198.73 1775.47,2179.37 1701.46,2116.88C1635.86,2061.48 1604.16,1813.15 1464.3,1832.44C1387.54,1843.02 1349.46,1907.12 1376.22,2112.49C1384.7,2177.51 1470.19,2548.96 1475.91,2572.56C1518.22,2747.09 1476.32,2944.32 1257.38,2842.11C1083.27,2760.82 1310.04,2097.5 1189.11,1912.45C1036.75,1679.33 806.954,2043.92 672.864,2138.3C391.376,2336.42 326.553,2115.39 436.749,2023.16C543.875,1933.5 798.919,1847.53 866.747,1765.37C1016.27,1584.26 890.159,1528.93 746.733,1543.31C638.552,1554.15 523.827,1605.4 437.721,1562.35C404.834,1545.91 331.759,1436.21 443.866,1383.38C599.127,1310.23 878.057,1506.84 914.258,1215.03Z" style="stroke:black;stroke-width:12.5px;"/>
    <path id="drop" d="M2162.68,656.005C2129.96,637.135 2128.48,490.263 2248.33,408.347C2320.25,359.193 2442.25,328.36 2474.75,359.682C2515.46,398.913 2481.02,494.317 2414.87,570.701C2359.58,634.549 2205.9,680.919 2162.68,656.005Z" style="stroke:black;stroke-width:12.5px;"/>
    <path id="drop2" d="M294.634,1056.94C186.997,1022.32 81.822,948.072 97.19,867.872C107.843,812.271 242.291,790.318 354.634,837.386C466.277,884.16 593.179,991.663 584.697,1047.94C577.049,1098.69 408.74,1093.64 294.634,1056.94Z" style="stroke:black;stroke-width:12.5px;"/>
</svg>
