<svg viewBox="0 0 250 250" xml:space="preserve" fill-rule="evenodd" clip-rule="evenodd" stroke-linejoin="round" stroke-miterlimit="2">
  <g id="splash">
    <g id="extra">
      <path d="M129.846 216.624c-1.413-5.65 2.692-11.198 6.932-14.378 4.593-3.444 12.984-5.339 18.87-4.685 8.214.913 16.548 10.224 15.276 19.127-.61 4.273-4.146 10.197-7.445 12.709-8.359 6.362-15.199 5.526-23.428 1.797-7.208-3.267-11.71-13.065-10.205-14.57Z"/>
      <path d="M127.743 216.346a3.553 3.553 0 0 0-.136.566c-.129.827.012 2.086.53 3.566 1.392 3.976 5.519 10.013 11.089 12.537 8.946 4.055 16.376 4.89 25.464-2.027 3.64-2.77 7.541-9.303 8.214-14.017.714-4.998-1.209-10.13-4.522-14.121-3.291-3.964-7.933-6.768-12.513-7.277-6.332-.703-15.351 1.368-20.291 5.073-4.634 3.476-8.927 9.531-7.835 15.7Zm3.83 1.286a2 2 0 0 0 .213-1.493c-1.218-4.872 2.536-9.55 6.192-12.293 4.245-3.183 12.009-4.902 17.449-4.297 3.634.403 7.266 2.711 9.877 5.857 2.59 3.118 4.198 7.094 3.64 10.999-.547 3.833-3.717 9.148-6.676 11.4-7.631 5.808-13.88 4.971-21.391 1.567-4.523-2.049-7.834-6.987-8.965-10.216-.192-.547-.303-1.262-.339-1.524Z"/>
    </g>
    <g id="main">
      <path d="M89.538 55.199c8.471-1.059 17.797-1.707 26.316-.642 5.576.697 18.331 4.763 19.897 3.98 1.286-.643 5.301-11.328 6.611-15.02 5.216-14.701 21.824-21.918 30.809-8.408 7.042 10.589 2.93 21.611-5.007 27.664-1.88 1.434-8.832 6.815-5.905 15.597 1.243 3.728 8.279 17.949 12.388 20.475 8.544 5.252 11.217 5.734 21.117-4.943 6.944-7.489 15.329-8.747 24.39-6.482 2.61.652 9.687 4.888 13.736 12.259 1.229 2.238 2.695 11.685 1.668 16.817-2.696 13.48-20.474 19.075-32.413 16.688-7.475-1.495-15.324-5.403-22.465-.642-4.741 3.161-6.754 11.292-8.023 16.367-2.241 8.967-9.915 18.073-17.009 23.748-10.216 8.174-22.101 11.93-34.66 14.442-4.441.888-15.415.665-15.853.578-5.689-1.138-12.128-.365-17.266 1.347-6.804 2.269-10.992 12.439-14.377 17.972-4.441 7.258-11.824 15.384-19.898 18.614-7.361 2.944-14.272 3.294-21.502-.321-2.875-1.438-9.789-9.847-10.333-13.351-1.027-6.614-.605-12.512 5.263-18.613 2.691-2.798 21.7-18.852 19.127-22.465-2.223-3.121-2.633-5.392-14.442-12.837-5.778-3.643-14.191-13.978-15.019-20.988-1.39-11.77-2.677-13.85.834-27.857.946-3.772 12.514-19.761 13.736-23.427 1.795-5.386-5.954-9.128-9.243-12.259-3.718-3.542-5.549-9.226-6.418-14.442-1.428-8.568-.538-17.178 6.097-23.427 4.524-4.26 9.301-8.194 15.597-9.243 5.993-.999 16.088 3.123 20.475 7.317 12.222 11.682 9.642 28.999 12.516 27.792 10.766-4.519 19.256-5.496 19.256-6.29Z"/>
      <path d="M44.361 171.793c-.039.15-.118.427-.206.624-.404.897-1.137 1.955-2.06 3.115-4.836 6.087-14.646 14.463-16.515 16.406-6.406 6.662-6.919 13.086-5.798 20.307.249 1.6 1.582 4.136 3.397 6.66 2.602 3.618 6.137 7.232 8.019 8.173 7.78 3.89 15.217 3.557 23.139.389 8.447-3.379 16.215-11.834 20.861-19.427 2.002-3.273 4.28-8.199 7.238-12.093 1.74-2.291 3.698-4.236 6.066-5.025 4.833-1.612 10.889-2.355 16.241-1.284.46.092 11.976.354 16.638-.578 12.874-2.575 25.043-6.462 35.517-14.841 7.404-5.923 15.36-15.466 17.7-24.825.732-2.931 1.709-6.925 3.37-10.305.986-2.005 2.197-3.8 3.822-4.883 3.115-2.077 6.394-2.207 9.701-1.711 3.757.564 7.555 1.908 11.262 2.65 7.611 1.522 17.456-.007 24.732-4.569 5.035-3.157 8.845-7.742 10.035-13.688 1.109-5.547-.549-15.753-1.877-18.172-4.4-8.01-12.168-12.527-15.004-13.237-9.792-2.447-18.838-1.03-26.342 7.064-4.509 4.863-7.259 7.33-9.968 7.838-2.577.483-4.933-.964-8.635-3.24-1.071-.659-2.317-2.278-3.641-4.245-3.447-5.12-7.053-12.629-7.896-15.159-2.52-7.559 3.601-12.14 5.22-13.374 8.709-6.641 13.186-18.742 5.459-30.361-3.047-4.582-6.903-7.009-10.921-7.778-9.115-1.743-19.425 5.313-23.438 16.625-.902 2.544-3.108 8.462-4.786 12.001a23.944 23.944 0 0 1-.934 1.736 29.438 29.438 0 0 1-2.531-.39c-4.685-.98-12.182-3.131-16.124-3.623-8.68-1.085-18.181-.437-26.812.641a1.994 1.994 0 0 0-1.088.497c-1.177.256-8.959 2.013-17.34 5.38a19.324 19.324 0 0 1-.274-1.227c-1.043-5.661-2.493-17.061-11.44-25.613-4.748-4.538-15.7-8.925-22.185-7.844-6.7 1.117-11.827 5.227-16.64 9.76-7.151 6.734-8.238 15.979-6.699 25.212.939 5.633 2.996 11.736 7.012 15.561 1.647 1.568 4.409 3.289 6.536 5.292 1.519 1.431 2.831 2.96 2.189 4.887-.713 2.137-5.087 8.56-8.637 14.169-2.588 4.089-4.739 7.801-5.141 9.404-3.603 14.37-2.307 16.503-.881 28.577.361 3.055 1.998 6.709 4.291 10.225 3.325 5.099 7.996 9.919 11.648 12.221 11.047 6.965 11.717 9.196 13.72 12.078Zm45.995-114.68c8.158-.997 17.082-1.592 25.25-.571 4.446.555 13.47 3.264 17.701 3.924 1.661.259 2.849.104 3.338-.141.428-.213 1.201-.966 1.919-2.289 1.765-3.25 4.613-10.834 5.683-13.85 4.638-13.073 19.269-19.984 27.258-7.969 6.357 9.558 2.611 19.502-4.553 24.965-2.142 1.634-9.925 7.816-6.59 17.82.897 2.69 4.708 10.684 8.373 16.128 1.724 2.561 3.47 4.561 4.865 5.418 4.844 2.978 8.094 4.397 11.466 3.765 3.239-.608 6.773-3.236 12.164-9.051 6.385-6.885 14.109-7.985 22.439-5.902 2.383.596 8.77 4.55 12.468 11.282 1.129 2.056 2.403 10.746 1.46 15.461-.967 4.839-4.14 8.515-8.237 11.084-6.42 4.025-15.107 5.379-21.823 4.035-3.768-.753-7.632-2.11-11.453-2.683-4.272-.641-8.488-.345-12.513 2.339-2.169 1.445-3.877 3.77-5.193 6.447-1.79 3.643-2.871 7.94-3.661 11.099-2.144 8.575-9.534 17.245-16.318 22.672-9.96 7.967-21.56 11.593-33.803 14.042-4.222.844-14.652.661-15.069.577-6.026-1.205-12.847-.402-18.29 1.412-3.077 1.025-5.725 3.424-7.986 6.4-3.043 4.006-5.406 9.059-7.465 12.425-4.236 6.923-11.234 14.721-18.934 17.801-6.801 2.72-13.186 3.086-19.865-.253-1.569-.784-4.392-3.915-6.56-6.93-1.366-1.899-2.505-3.735-2.692-4.938-.933-6.008-.601-11.379 4.728-16.921 2.189-2.276 14.961-13.215 18.658-19.366.725-1.206 1.135-2.292 1.237-3.159.117-.996-.109-1.825-.58-2.486-2.312-3.246-2.723-5.626-15.004-13.369-3.282-2.069-7.442-6.439-10.43-11.022-1.916-2.938-3.368-5.956-3.67-8.509-1.354-11.464-2.632-13.491.788-27.135.355-1.415 2.359-4.63 4.642-8.237 3.756-5.935 8.298-12.783 9.051-15.045.955-2.864.011-5.414-1.904-7.667-2.204-2.594-5.842-4.755-7.856-6.673-3.422-3.258-5.025-8.523-5.825-13.322-1.317-7.903-.625-15.878 5.496-21.642 4.233-3.987 8.66-7.744 14.554-8.726 5.5-.917 14.738 2.941 18.764 6.79 9.426 9.01 9.585 21.554 10.744 25.592.448 1.561 1.257 2.353 1.94 2.63.591.239 1.248.279 1.989-.032 8.532-3.582 15.624-4.909 18.118-5.703a5.644 5.644 0 0 0 1.181-.517Z"/>
    </g>
  </g>
</svg>
